<svg width="159" height="51" viewBox="0 0 159 51" fill="none" xmlns="http://www.w3.org/2000/svg">
<path d="M31.8147 4.35632C21.5116 6.11901 13.6702 15.0916 13.6702 25.8976C13.6702 36.7037 21.5117 45.6764 31.8147 47.439C42.1176 45.6764 49.9591 36.7037 49.9591 25.8976C49.9591 15.0916 42.1176 6.11891 31.8147 4.35632Z" fill="#E77308"/>
<path d="M26.1933 4.28796C15.6859 5.87743 7.63269 14.9466 7.63269 25.8977C7.63269 36.8489 15.6859 45.918 26.1935 47.5071C36.7011 45.918 44.7543 36.8489 44.7543 25.8977C44.7543 14.9466 36.701 5.87743 26.1933 4.28796Z" fill="#F97F0D"/>
<path d="M12.8753 25.8977C12.8753 18.1519 18.4429 11.7081 25.7945 10.347C24.839 10.1704 23.8694 10.0816 22.8977 10.0817C14.1624 10.0817 7.0816 17.1625 7.0816 25.8977C7.0816 34.633 14.1624 41.7138 22.8977 41.7138C23.8872 41.7138 24.8552 41.622 25.7945 41.4485C18.4429 40.0874 12.8753 33.6436 12.8753 25.8977Z" fill="white"/>
<path d="M38.7138 25.8978C38.7138 18.1519 33.1462 11.7081 25.7945 10.347C18.4428 11.7081 12.8752 18.1519 12.8752 25.8978C12.8752 33.6436 18.4428 40.0874 25.7945 41.4485C33.1462 40.0874 38.7139 33.6436 38.7139 25.8978H38.7138Z" fill="#FE8515"/>
<path d="M44.2935 9.7065C39.9691 5.38166 34.219 3 28.1023 3H22.8977C16.7811 3 11.0309 5.38166 6.7065 9.7065C2.38166 14.0309 0 19.7815 0 25.8977C0 32.0139 2.38166 37.7645 6.7065 42.0889C11.0309 46.4134 16.781 48.7954 22.8977 48.7954H28.1023C34.2189 48.7954 39.9691 46.4134 44.2935 42.0889C48.6183 37.7641 51 32.0139 51 25.8977C51 19.7815 48.6183 14.0309 44.2935 9.7065ZM2.08164 25.8977C2.08164 14.4197 11.4197 5.08164 22.8977 5.08164C34.3754 5.08164 43.7138 14.4197 43.7138 25.8977C43.7138 37.3757 34.3754 46.7138 22.8977 46.7138C11.4197 46.7138 2.08164 37.3757 2.08164 25.8977ZM34.273 45.7799C36.0127 44.7811 37.6317 43.5457 39.0889 42.0889C43.4134 37.7641 45.795 32.0139 45.795 25.8977C45.795 19.7815 43.4134 14.0313 39.0885 9.7065C37.6317 8.24971 36.0127 7.01436 34.273 6.01547C42.7476 8.65084 48.9184 16.5671 48.9184 25.8977C48.9184 35.2283 42.7476 43.1446 34.273 45.7799Z" fill="black"/>
<path d="M27.4447 42.085C26.9965 42.085 26.5829 41.7935 26.4479 41.3426C26.2829 40.7919 26.5957 40.2118 27.1463 40.0469C33.3443 38.1892 37.673 32.3684 37.673 25.8911C37.673 17.744 31.0447 11.1158 22.8973 11.1158C14.7504 11.1158 8.12207 17.7441 8.12207 25.8911C8.12207 32.3684 12.4508 38.1892 18.6488 40.0469C19.1993 40.2118 19.5122 40.7919 19.3469 41.3426C19.1818 41.8931 18.6013 42.2056 18.0511 42.0405C14.6505 41.0215 11.5925 38.8924 9.4407 36.0454C7.21622 33.1019 6.04083 29.5902 6.04083 25.8911C6.04083 16.5962 13.6026 9.03418 22.8973 9.03418C32.1926 9.03418 39.7546 16.5962 39.7546 25.8911C39.7546 29.5902 38.5788 33.1018 36.3544 36.0454C34.2026 38.8924 31.1447 41.0218 27.7439 42.0409C27.6439 42.0709 27.5436 42.085 27.4447 42.085Z" fill="black"/>
<path d="M75.4758 24.6308H72.5681V37.7788H67.1635V24.6308H65.204V20.1429H67.1635V19.6372C67.1635 17.4669 67.7851 15.8234 69.0283 14.7067C70.2714 13.5689 72.094 13 74.496 13C74.8964 13 75.1913 13.0105 75.381 13.0316V17.6144C74.3485 17.5512 73.6216 17.6987 73.2002 18.0569C72.7788 18.4151 72.5681 19.0577 72.5681 19.9848V20.1429H75.4758V24.6308Z" fill="black"/>
<path d="M88.4452 37.7788L85.0634 32.8799L82.2189 37.7788H76.3719L82.1873 28.7712L76.2138 20.1429H82.2821L85.6639 25.0101L88.5084 20.1429H94.3554L88.4452 29.024L94.5134 37.7788H88.4452Z" fill="black"/>
<path d="M101.906 15.5917V28.866C101.906 30.1934 102.232 31.2153 102.885 31.9317C103.539 32.6481 104.497 33.0063 105.762 33.0063C107.026 33.0063 107.995 32.6481 108.669 31.9317C109.344 31.2153 109.681 30.1934 109.681 28.866V15.5917H115.085V28.8344C115.085 30.815 114.664 32.4901 113.821 33.8597C112.978 35.2292 111.84 36.2617 110.408 36.957C108.996 37.6523 107.416 38 105.667 38C103.918 38 102.348 37.6629 100.958 36.9886C99.5879 36.2933 98.5028 35.2609 97.7022 33.8913C96.9015 32.5006 96.5011 30.815 96.5011 28.8344V15.5917H101.906Z" fill="black"/>
<path d="M126.908 38C125.286 38 123.832 37.7366 122.547 37.2099C121.261 36.6831 120.229 35.9035 119.449 34.871C118.691 33.8386 118.29 32.5954 118.248 31.1416H124C124.085 31.9633 124.369 32.5954 124.854 33.0379C125.338 33.4593 125.971 33.67 126.75 33.67C127.551 33.67 128.183 33.4909 128.646 33.1327C129.11 32.7535 129.342 32.2373 129.342 31.5841C129.342 31.0362 129.152 30.5832 128.773 30.225C128.415 29.8668 127.962 29.5719 127.414 29.3401C126.887 29.1083 126.129 28.8449 125.138 28.5499C123.705 28.1075 122.536 27.665 121.63 27.2225C120.724 26.78 119.944 26.1268 119.291 25.263C118.638 24.3991 118.311 23.2718 118.311 21.8812C118.311 19.8163 119.059 18.2044 120.555 17.0455C122.051 15.8656 124 15.2756 126.402 15.2756C128.847 15.2756 130.817 15.8656 132.313 17.0455C133.809 18.2044 134.609 19.8268 134.715 21.9128H128.868C128.826 21.1964 128.562 20.638 128.078 20.2377C127.593 19.8163 126.971 19.6056 126.213 19.6056C125.56 19.6056 125.033 19.7847 124.633 20.1429C124.232 20.48 124.032 20.9751 124.032 21.6283C124.032 22.3447 124.369 22.9031 125.043 23.3034C125.718 23.7038 126.771 24.1357 128.204 24.5992C129.637 25.0839 130.796 25.5474 131.681 25.9899C132.587 26.4324 133.366 27.075 134.019 27.9178C134.673 28.7606 134.999 29.8458 134.999 31.1732C134.999 32.4374 134.673 33.5858 134.019 34.6182C133.387 35.6507 132.46 36.4724 131.238 37.0834C130.016 37.6945 128.573 38 126.908 38Z" fill="black"/>
<path d="M146.637 15.5917C148.976 15.5917 151.02 16.0552 152.769 16.9823C154.518 17.9094 155.866 19.2158 156.814 20.9014C157.784 22.566 158.268 24.4939 158.268 26.6852C158.268 28.8555 157.784 30.7834 156.814 32.469C155.866 34.1547 154.507 35.461 152.737 36.3881C150.988 37.3152 148.955 37.7788 146.637 37.7788H138.325V15.5917H146.637ZM146.29 33.1011C148.334 33.1011 149.924 32.5428 151.062 31.426C152.2 30.3093 152.769 28.729 152.769 26.6852C152.769 24.6414 152.2 23.0506 151.062 21.9128C149.924 20.775 148.334 20.2061 146.29 20.2061H143.73V33.1011H146.29Z" fill="black"/>
</svg>
