<svg width="297" height="52" viewBox="0 0 297 52" fill="none" xmlns="http://www.w3.org/2000/svg">
<path d="M47.8888 10.2294L45.8006 23.4244C45.5642 24.987 44.7409 26.4007 43.4985 27.3775C42.2561 28.3542 40.688 28.8205 39.1138 28.6813C37.7883 28.5262 36.5514 27.9367 35.5961 27.0049C34.6407 26.0731 34.0206 24.8513 33.8325 23.5301C33.8015 23.2985 33.6973 23.0829 33.535 22.9148C33.3727 22.7467 33.161 22.6349 32.9306 22.5957C32.6448 22.5528 32.3534 22.6227 32.1181 22.7907C32.0024 22.8733 31.9045 22.9786 31.8305 23.1001C31.7565 23.2216 31.7079 23.3568 31.6875 23.4976L29.0794 39.9669C28.8593 41.5112 28.0621 42.9148 26.8484 43.8947C25.6347 44.8747 24.0948 45.3583 22.5388 45.2482C21.416 45.1485 20.3439 44.7354 19.4446 44.0559C18.5453 43.3764 17.8551 42.4579 17.4525 41.4051C17.2588 40.9402 16.9187 40.5512 16.4837 40.2972C16.0488 40.0432 15.5429 39.9382 15.0428 39.9979C14.5427 40.0577 14.0758 40.279 13.713 40.6283C13.3502 40.9776 13.1112 41.4357 13.0325 41.9332L12.7075 43.9644C12.5432 45.0051 12.0124 45.9529 11.2109 46.6367C10.4094 47.3206 9.38987 47.6955 8.33627 47.6938C7.96048 47.6932 7.58634 47.6441 7.22314 47.5476C4.86689 46.9463 3.65627 44.5819 4.14377 41.5432L5.67939 31.8338C5.84402 30.7385 6.40304 29.741 7.25137 29.0288C8.09971 28.3166 9.17896 27.9388 10.2863 27.9663C11.1553 28.01 11.9922 28.3094 12.6917 28.8269C13.3913 29.3443 13.9226 30.0569 14.2188 30.8751C14.3387 31.2523 14.5596 31.5895 14.8575 31.8501C15.1554 32.1108 15.519 32.285 15.9088 32.3538C16.1843 32.3997 16.4662 32.3904 16.7381 32.3263C17.01 32.2623 17.2664 32.1448 17.4925 31.9807C17.7186 31.8167 17.9097 31.6093 18.0549 31.3706C18.2001 31.132 18.2964 30.8669 18.3381 30.5907L21.4256 11.1394C21.7026 9.54272 22.6014 8.12097 23.9249 7.18582C25.2484 6.25067 26.8887 5.87843 28.4863 6.15068C31.5575 6.63819 33.3288 8.81568 33.3613 12.1226C33.3632 12.3057 33.4156 12.4847 33.5125 12.64C33.6095 12.7954 33.7473 12.921 33.9109 13.0033C34.0745 13.0855 34.2576 13.1211 34.4401 13.1062C34.6226 13.0913 34.7975 13.0265 34.9456 12.9188C35.0524 12.8429 35.1427 12.7462 35.2111 12.6345C35.2795 12.5228 35.3246 12.3984 35.3438 12.2688L35.9369 8.55568C36.1674 6.97792 36.9984 5.55018 38.2566 4.57061C39.5147 3.59105 41.1027 3.1354 42.6888 3.29881C43.4909 3.39963 44.2645 3.66078 44.9636 4.06671C45.6627 4.47265 46.2729 5.01507 46.7581 5.6617C47.2433 6.30833 47.5934 7.04595 47.7876 7.83066C47.9819 8.61538 48.0163 9.43115 47.8888 10.2294ZM43.4119 40.1619C42.5623 40.1611 41.7315 40.4124 41.0247 40.8839C40.3179 41.3555 39.7669 42.0261 39.4414 42.8109C39.1159 43.5957 39.0305 44.4594 39.1961 45.2927C39.3616 46.1261 39.7707 46.8916 40.3715 47.4924C40.9723 48.0931 41.7378 48.5022 42.5711 48.6678C43.4044 48.8333 44.2682 48.7479 45.053 48.4224C45.8378 48.0969 46.5084 47.5459 46.9799 46.8391C47.4514 46.1323 47.7027 45.3016 47.7019 44.4519C47.6997 43.3148 47.2471 42.2249 46.443 41.4208C45.6389 40.6168 44.549 40.1641 43.4119 40.1619ZM41.3806 34.3769C41.3814 33.8089 41.2138 33.2533 40.8988 32.7806C40.5839 32.3078 40.1359 31.939 39.6114 31.7209C39.0868 31.5027 38.5094 31.4451 37.9521 31.5551C37.3948 31.6651 36.8826 31.938 36.4804 32.3391C36.0781 32.7402 35.8039 33.2516 35.6923 33.8086C35.5806 34.3655 35.6367 34.9431 35.8534 35.4683C36.07 35.9934 36.4375 36.4425 36.9094 36.7588C37.3813 37.075 37.9363 37.2443 38.5044 37.2451C39.2654 37.2436 39.9949 36.9412 40.5337 36.4039C41.0725 35.8665 41.377 35.1379 41.3806 34.3769ZM13.8125 15.5107C14.6618 15.5115 15.4923 15.2604 16.1989 14.7893C16.9055 14.3181 17.4565 13.648 17.7822 12.8636C18.108 12.0793 18.1938 11.216 18.0289 10.3829C17.864 9.54976 17.4558 8.78424 16.8558 8.18314C16.2558 7.58203 15.4911 7.17234 14.6583 7.00587C13.8255 6.83939 12.962 6.92361 12.1771 7.24787C11.3921 7.57214 10.721 8.12189 10.2485 8.82759C9.77595 9.5333 9.52332 10.3633 9.52252 11.2126C9.52295 12.351 9.9748 13.4427 10.779 14.2485C11.5832 15.0542 12.6741 15.5081 13.8125 15.5107ZM8.91314 24.1719C9.48201 24.1719 10.0381 24.0032 10.5111 23.6872C10.9841 23.3712 11.3528 22.9219 11.5705 22.3964C11.7881 21.8708 11.8451 21.2925 11.7341 20.7346C11.6231 20.1766 11.3492 19.6641 10.947 19.2619C10.5447 18.8596 10.0322 18.5857 9.47427 18.4747C8.91633 18.3637 8.33802 18.4207 7.81245 18.6384C7.28688 18.8561 6.83767 19.2247 6.52163 19.6977C6.20558 20.1707 6.03689 20.7268 6.03689 21.2957C6.03668 21.6735 6.11093 22.0476 6.2554 22.3966C6.39987 22.7457 6.61172 23.0629 6.87885 23.33C7.14598 23.5971 7.46314 23.809 7.8122 23.9534C8.16126 24.0979 8.53537 24.1721 8.91314 24.1719Z" fill="url(#paint0_linear_1_4)"/>
<path d="M68 32.7699V15.1527H80.0258V18.6108H72.2581V22.2237H79.2602V25.6903H72.2581V32.7699H68Z" fill="black"/>
<path d="M82.1699 32.7699V19.557H86.3763V32.7699H82.1699ZM84.2774 18.0172C83.6867 18.0172 83.1792 17.8222 82.7548 17.4323C82.3305 17.0366 82.1183 16.5606 82.1183 16.0043C82.1183 15.4538 82.3305 14.9835 82.7548 14.5935C83.1792 14.1978 83.6867 14 84.2774 14C84.8738 14 85.3814 14.1978 85.8 14.5935C86.2244 14.9835 86.4366 15.4538 86.4366 16.0043C86.4366 16.5606 86.2244 17.0366 85.8 17.4323C85.3814 17.8222 84.8738 18.0172 84.2774 18.0172Z" fill="black"/>
<path d="M89.0538 32.7699V19.557H93.1398V21.9656H93.2774C93.5183 21.0939 93.9111 20.4459 94.4559 20.0215C95.0007 19.5914 95.6344 19.3763 96.357 19.3763C96.552 19.3763 96.7527 19.3907 96.9591 19.4194C97.1656 19.4423 97.3577 19.4796 97.5355 19.5312V23.1871C97.3348 23.1183 97.071 23.0638 96.7441 23.0237C96.4229 22.9835 96.1362 22.9634 95.8839 22.9634C95.3849 22.9634 94.9348 23.0753 94.5333 23.2989C94.1376 23.5168 93.8251 23.8237 93.5957 24.2194C93.372 24.6093 93.2602 25.0681 93.2602 25.5957V32.7699H89.0538Z" fill="black"/>
<path d="M110.785 23.5914L106.923 23.6946C106.882 23.4194 106.773 23.1756 106.596 22.9634C106.418 22.7455 106.186 22.5763 105.899 22.4559C105.618 22.3297 105.291 22.2667 104.918 22.2667C104.431 22.2667 104.015 22.3642 103.671 22.5591C103.333 22.7541 103.166 23.0179 103.172 23.3505C103.166 23.6086 103.27 23.8323 103.482 24.0215C103.7 24.2108 104.087 24.3627 104.643 24.4774L107.189 24.9591C108.508 25.2115 109.489 25.6301 110.131 26.2151C110.779 26.8 111.106 27.5742 111.112 28.5376C111.106 29.4437 110.837 30.2323 110.303 30.9032C109.776 31.5742 109.053 32.0961 108.135 32.4688C107.218 32.8358 106.168 33.0194 104.987 33.0194C103.1 33.0194 101.612 32.6323 100.523 31.8581C99.4387 31.0781 98.8194 30.0344 98.6645 28.7269L102.819 28.6237C102.911 29.1054 103.149 29.4724 103.533 29.7247C103.918 29.9771 104.408 30.1032 105.004 30.1032C105.543 30.1032 105.982 30.0029 106.32 29.8022C106.659 29.6014 106.831 29.3348 106.837 29.0022C106.831 28.7039 106.699 28.466 106.441 28.2882C106.183 28.1047 105.778 27.9613 105.228 27.8581L102.923 27.4194C101.598 27.1785 100.611 26.734 99.9634 26.086C99.3154 25.4323 98.9943 24.6007 99 23.5914C98.9943 22.7082 99.2294 21.9541 99.7054 21.329C100.181 20.6982 100.858 20.2165 101.735 19.8839C102.613 19.5513 103.648 19.3849 104.841 19.3849C106.63 19.3849 108.041 19.7606 109.073 20.5118C110.105 21.2573 110.676 22.2839 110.785 23.5914Z" fill="black"/>
<path d="M120.641 19.557V22.6538H112.305V19.557H120.641ZM114.052 16.3914H118.258V28.6151C118.258 28.8731 118.298 29.0824 118.378 29.243C118.465 29.3978 118.588 29.5097 118.748 29.5785C118.909 29.6416 119.101 29.6731 119.325 29.6731C119.485 29.6731 119.654 29.6588 119.832 29.6301C120.016 29.5957 120.153 29.567 120.245 29.5441L120.882 32.5806C120.681 32.638 120.397 32.7097 120.03 32.7957C119.669 32.8817 119.236 32.9362 118.731 32.9591C117.745 33.005 116.899 32.8903 116.194 32.6151C115.494 32.334 114.958 31.8982 114.585 31.3075C114.218 30.7168 114.04 29.9742 114.052 29.0796V16.3914Z" fill="black"/>
<path d="M123.071 32.7699V15.1527H135.355V18.6108H127.329V22.2237H134.727V25.6903H127.329V29.3118H135.355V32.7699H123.071Z" fill="black"/>
<path d="M141.6 19.557L143.776 23.9097L146.03 19.557H150.271L146.581 26.1634L150.409 32.7699H146.202L143.776 28.3828L141.411 32.7699H137.144L140.981 26.1634L137.333 19.557H141.6Z" fill="black"/>
<path d="M157.886 33.0194C156.492 33.0194 155.297 32.7326 154.299 32.1591C153.307 31.5857 152.544 30.7885 152.011 29.7677C151.477 28.7412 151.211 27.5541 151.211 26.2065C151.211 24.853 151.477 23.6659 152.011 22.6452C152.55 21.6186 153.315 20.8186 154.308 20.2452C155.305 19.6717 156.495 19.3849 157.877 19.3849C159.099 19.3849 160.163 19.6057 161.069 20.0473C161.981 20.4889 162.692 21.114 163.202 21.9226C163.718 22.7254 163.991 23.6688 164.019 24.7527H160.088C160.008 24.076 159.778 23.5455 159.4 23.1613C159.027 22.7771 158.54 22.5849 157.938 22.5849C157.45 22.5849 157.023 22.7226 156.656 22.9978C156.289 23.2674 156.002 23.6688 155.796 24.2022C155.595 24.7297 155.495 25.3835 155.495 26.1634C155.495 26.9434 155.595 27.6029 155.796 28.1419C156.002 28.6753 156.289 29.0796 156.656 29.3548C157.023 29.6244 157.45 29.7591 157.938 29.7591C158.328 29.7591 158.672 29.676 158.97 29.5097C159.274 29.3434 159.523 29.0996 159.718 28.7785C159.913 28.4516 160.037 28.0559 160.088 27.5914H164.019C163.979 28.681 163.707 29.633 163.202 30.4473C162.703 31.2616 162.001 31.8953 161.095 32.3484C160.194 32.7957 159.125 33.0194 157.886 33.0194Z" fill="black"/>
<path d="M170.378 25.2344V32.7699H166.172V15.1527H170.241V21.9828H170.387C170.685 21.1685 171.173 20.5319 171.849 20.0731C172.532 19.6143 173.366 19.3849 174.353 19.3849C175.282 19.3849 176.09 19.5914 176.778 20.0043C177.467 20.4115 178 20.9878 178.378 21.7333C178.763 22.4789 178.952 23.3505 178.946 24.3484V32.7699H174.74V25.1742C174.746 24.4401 174.562 23.8667 174.189 23.4538C173.816 23.0409 173.292 22.8344 172.615 22.8344C172.173 22.8344 171.784 22.9319 171.445 23.1269C171.113 23.3161 170.852 23.5885 170.662 23.9441C170.479 24.2996 170.384 24.7297 170.378 25.2344Z" fill="black"/>
<path d="M185.297 32.9935C184.454 32.9935 183.705 32.853 183.052 32.572C182.404 32.2853 181.89 31.8552 181.512 31.2817C181.139 30.7025 180.953 29.9771 180.953 29.1054C180.953 28.3713 181.082 27.752 181.34 27.2473C181.598 26.7427 181.953 26.3326 182.406 26.0172C182.859 25.7018 183.381 25.4638 183.972 25.3032C184.563 25.1369 185.194 25.0251 185.865 24.9677C186.616 24.8989 187.221 24.8272 187.68 24.7527C188.138 24.6724 188.471 24.5606 188.677 24.4172C188.89 24.2681 188.996 24.0588 188.996 23.7892V23.7462C188.996 23.3047 188.844 22.9634 188.54 22.7226C188.236 22.4817 187.826 22.3613 187.31 22.3613C186.753 22.3613 186.306 22.4817 185.968 22.7226C185.629 22.9634 185.414 23.2961 185.323 23.7204L181.443 23.5828C181.558 22.7799 181.853 22.0631 182.329 21.4323C182.811 20.7957 183.47 20.2968 184.308 19.9355C185.151 19.5685 186.163 19.3849 187.344 19.3849C188.187 19.3849 188.964 19.4853 189.675 19.686C190.386 19.881 191.006 20.1677 191.533 20.5462C192.061 20.919 192.468 21.3778 192.755 21.9226C193.047 22.4674 193.194 23.0896 193.194 23.7892V32.7699H189.237V30.929H189.133C188.898 31.3763 188.597 31.7548 188.23 32.0645C187.869 32.3742 187.442 32.6065 186.948 32.7613C186.461 32.9161 185.91 32.9935 185.297 32.9935ZM186.596 30.2409C187.049 30.2409 187.456 30.1491 187.817 29.9656C188.184 29.7821 188.477 29.5297 188.695 29.2086C188.913 28.8817 189.021 28.5032 189.021 28.0731V26.8172C188.901 26.8803 188.755 26.9376 188.583 26.9892C188.416 27.0409 188.233 27.0896 188.032 27.1355C187.832 27.1814 187.625 27.2215 187.413 27.2559C187.201 27.2903 186.997 27.3219 186.802 27.3505C186.406 27.4136 186.068 27.5111 185.787 27.643C185.512 27.7749 185.3 27.947 185.151 28.1591C185.007 28.3656 184.935 28.6122 184.935 28.8989C184.935 29.3348 185.09 29.6674 185.4 29.8968C185.715 30.1262 186.114 30.2409 186.596 30.2409Z" fill="black"/>
<path d="M199.972 25.2344V32.7699H195.766V19.557H199.766V21.9828H199.912C200.204 21.1742 200.703 20.5405 201.409 20.0817C202.114 19.6172 202.954 19.3849 203.929 19.3849C204.858 19.3849 205.664 19.5943 206.346 20.0129C207.034 20.4258 207.568 21.005 207.946 21.7505C208.33 22.4903 208.52 23.3563 208.514 24.3484V32.7699H204.308V25.1742C204.313 24.4401 204.127 23.8667 203.748 23.4538C203.376 23.0409 202.857 22.8344 202.191 22.8344C201.75 22.8344 201.36 22.9319 201.021 23.1269C200.689 23.3161 200.431 23.5885 200.247 23.9441C200.07 24.2996 199.978 24.7297 199.972 25.2344Z" fill="black"/>
<path d="M217.277 38C216.021 38 214.946 37.8251 214.052 37.4753C213.157 37.1254 212.454 36.6466 211.944 36.0387C211.434 35.4308 211.127 34.7427 211.024 33.9742L215.006 33.7505C215.081 34.0201 215.219 34.2552 215.419 34.4559C215.626 34.6566 215.892 34.8115 216.219 34.9204C216.552 35.0294 216.942 35.0839 217.389 35.0839C218.095 35.0839 218.677 34.9118 219.135 34.5677C219.6 34.2294 219.832 33.6358 219.832 32.7871V30.4645H219.686C219.52 30.8717 219.267 31.2358 218.929 31.557C218.591 31.8781 218.169 32.1305 217.665 32.314C217.166 32.4975 216.592 32.5892 215.944 32.5892C214.981 32.5892 214.097 32.3656 213.295 31.9183C212.497 31.4652 211.858 30.7656 211.376 29.8194C210.9 28.8674 210.662 27.643 210.662 26.1462C210.662 24.6036 210.909 23.3333 211.402 22.3355C211.895 21.3319 212.54 20.5892 213.338 20.1075C214.14 19.6258 215.004 19.3849 215.927 19.3849C216.621 19.3849 217.214 19.5054 217.708 19.7462C218.206 19.9814 218.616 20.2853 218.938 20.6581C219.259 21.0308 219.503 21.4179 219.669 21.8194H219.789V19.557H223.978V32.8215C223.978 33.9398 223.697 34.8832 223.135 35.6516C222.573 36.4201 221.788 37.0021 220.778 37.3978C219.769 37.7993 218.602 38 217.277 38ZM217.406 29.5269C217.917 29.5269 218.353 29.3921 218.714 29.1226C219.075 28.853 219.353 28.466 219.548 27.9613C219.743 27.4566 219.841 26.8516 219.841 26.1462C219.841 25.4294 219.743 24.8129 219.548 24.2968C219.359 23.7749 219.081 23.3735 218.714 23.0925C218.353 22.8115 217.917 22.671 217.406 22.671C216.885 22.671 216.443 22.8143 216.082 23.1011C215.72 23.3878 215.445 23.7921 215.256 24.314C215.072 24.8301 214.981 25.4409 214.981 26.1462C214.981 26.8516 215.075 27.4566 215.265 27.9613C215.454 28.466 215.726 28.853 216.082 29.1226C216.443 29.3921 216.885 29.5269 217.406 29.5269Z" fill="black"/>
<path d="M232.837 33.0194C231.454 33.0194 230.262 32.747 229.258 32.2022C228.26 31.6516 227.492 30.8688 226.953 29.8538C226.419 28.833 226.153 27.6201 226.153 26.2151C226.153 24.8502 226.422 23.6573 226.961 22.6366C227.5 21.61 228.26 20.8129 229.241 20.2452C230.221 19.6717 231.377 19.3849 232.708 19.3849C233.648 19.3849 234.508 19.5312 235.288 19.8237C236.068 20.1161 236.742 20.5491 237.31 21.1226C237.877 21.6961 238.319 22.4043 238.634 23.2473C238.95 24.0846 239.108 25.0452 239.108 26.129V27.1785H227.624V24.7355H235.194C235.188 24.2882 235.082 23.8896 234.875 23.5398C234.669 23.19 234.385 22.9176 234.024 22.7226C233.668 22.5219 233.258 22.4215 232.794 22.4215C232.323 22.4215 231.902 22.5276 231.529 22.7398C231.156 22.9462 230.861 23.2301 230.643 23.5914C230.425 23.947 230.31 24.3513 230.299 24.8043V27.2903C230.299 27.8294 230.405 28.3025 230.617 28.7097C230.829 29.1111 231.13 29.4237 231.52 29.6473C231.91 29.871 232.375 29.9828 232.914 29.9828C233.287 29.9828 233.625 29.9312 233.929 29.828C234.233 29.7247 234.494 29.5728 234.712 29.372C234.93 29.1713 235.093 28.9247 235.202 28.6323L239.064 28.7441C238.904 29.61 238.551 30.3642 238.006 31.0065C237.467 31.643 236.759 32.1391 235.882 32.4946C235.004 32.8444 233.989 33.0194 232.837 33.0194Z" fill="black"/>
<path d="M241.256 32.7699V15.1527H245.514V29.3118H252.843V32.7699H241.256Z" fill="black"/>
<path d="M258.772 32.9935C257.929 32.9935 257.181 32.853 256.527 32.572C255.879 32.2853 255.366 31.8552 254.987 31.2817C254.614 30.7025 254.428 29.9771 254.428 29.1054C254.428 28.3713 254.557 27.752 254.815 27.2473C255.073 26.7427 255.429 26.3326 255.882 26.0172C256.335 25.7018 256.857 25.4638 257.447 25.3032C258.038 25.1369 258.669 25.0251 259.34 24.9677C260.091 24.8989 260.696 24.8272 261.155 24.7527C261.614 24.6724 261.946 24.5606 262.153 24.4172C262.365 24.2681 262.471 24.0588 262.471 23.7892V23.7462C262.471 23.3047 262.319 22.9634 262.015 22.7226C261.711 22.4817 261.301 22.3613 260.785 22.3613C260.229 22.3613 259.781 22.4817 259.443 22.7226C259.105 22.9634 258.89 23.2961 258.798 23.7204L254.918 23.5828C255.033 22.7799 255.328 22.0631 255.804 21.4323C256.286 20.7957 256.945 20.2968 257.783 19.9355C258.626 19.5685 259.638 19.3849 260.819 19.3849C261.662 19.3849 262.439 19.4853 263.151 19.686C263.862 19.881 264.481 20.1677 265.009 20.5462C265.536 20.919 265.943 21.3778 266.23 21.9226C266.523 22.4674 266.669 23.0896 266.669 23.7892V32.7699H262.712V30.929H262.609C262.373 31.3763 262.072 31.7548 261.705 32.0645C261.344 32.3742 260.917 32.6065 260.424 32.7613C259.936 32.9161 259.386 32.9935 258.772 32.9935ZM260.071 30.2409C260.524 30.2409 260.931 30.1491 261.292 29.9656C261.659 29.7821 261.952 29.5297 262.17 29.2086C262.388 28.8817 262.497 28.5032 262.497 28.0731V26.8172C262.376 26.8803 262.23 26.9376 262.058 26.9892C261.892 27.0409 261.708 27.0896 261.508 27.1355C261.307 27.1814 261.1 27.2215 260.888 27.2559C260.676 27.2903 260.472 27.3219 260.277 27.3505C259.882 27.4136 259.543 27.5111 259.262 27.643C258.987 27.7749 258.775 27.947 258.626 28.1591C258.482 28.3656 258.411 28.6122 258.411 28.8989C258.411 29.3348 258.566 29.6674 258.875 29.8968C259.191 30.1262 259.589 30.2409 260.071 30.2409Z" fill="black"/>
<path d="M269.241 32.7699V15.1527H273.447V21.8194H273.533C273.705 21.4179 273.949 21.0308 274.264 20.6581C274.586 20.2853 274.993 19.9814 275.486 19.7462C275.985 19.5054 276.581 19.3849 277.275 19.3849C278.193 19.3849 279.05 19.6258 279.847 20.1075C280.65 20.5892 281.298 21.3319 281.791 22.3355C282.285 23.3391 282.531 24.6179 282.531 26.172C282.531 27.6688 282.293 28.9219 281.817 29.9312C281.347 30.9405 280.71 31.6975 279.908 32.2022C279.11 32.7068 278.224 32.9591 277.249 32.9591C276.584 32.9591 276.008 32.8502 275.52 32.6323C275.033 32.4143 274.623 32.1276 274.29 31.772C273.963 31.4165 273.711 31.0351 273.533 30.628H273.404V32.7699H269.241ZM273.361 26.1634C273.361 26.8746 273.456 27.4939 273.645 28.0215C273.84 28.5491 274.118 28.9591 274.48 29.2516C274.847 29.5384 275.285 29.6817 275.796 29.6817C276.312 29.6817 276.751 29.5384 277.112 29.2516C277.473 28.9591 277.745 28.5491 277.929 28.0215C278.118 27.4939 278.213 26.8746 278.213 26.1634C278.213 25.4523 278.118 24.8358 277.929 24.314C277.745 23.7921 277.473 23.3878 277.112 23.1011C276.756 22.8143 276.318 22.671 275.796 22.671C275.28 22.671 274.841 22.8115 274.48 23.0925C274.118 23.3735 273.84 23.7749 273.645 24.2968C273.456 24.8186 273.361 25.4409 273.361 26.1634Z" fill="black"/>
<path d="M296.271 23.5914L292.409 23.6946C292.368 23.4194 292.259 23.1756 292.082 22.9634C291.904 22.7455 291.672 22.5763 291.385 22.4559C291.104 22.3297 290.777 22.2667 290.404 22.2667C289.917 22.2667 289.501 22.3642 289.157 22.5591C288.819 22.7541 288.652 23.0179 288.658 23.3505C288.652 23.6086 288.756 23.8323 288.968 24.0215C289.186 24.2108 289.573 24.3627 290.129 24.4774L292.675 24.9591C293.994 25.2115 294.975 25.6301 295.617 26.2151C296.265 26.8 296.592 27.5742 296.598 28.5376C296.592 29.4437 296.323 30.2323 295.789 30.9032C295.262 31.5742 294.539 32.0961 293.621 32.4688C292.704 32.8358 291.654 33.0194 290.473 33.0194C288.586 33.0194 287.098 32.6323 286.009 31.8581C284.925 31.0781 284.305 30.0344 284.151 28.7269L288.305 28.6237C288.397 29.1054 288.635 29.4724 289.019 29.7247C289.404 29.9771 289.894 30.1032 290.49 30.1032C291.029 30.1032 291.468 30.0029 291.806 29.8022C292.145 29.6014 292.317 29.3348 292.323 29.0022C292.317 28.7039 292.185 28.466 291.927 28.2882C291.669 28.1047 291.264 27.9613 290.714 27.8581L288.409 27.4194C287.084 27.1785 286.097 26.734 285.449 26.086C284.801 25.4323 284.48 24.6007 284.486 23.5914C284.48 22.7082 284.715 21.9541 285.191 21.329C285.667 20.6982 286.344 20.2165 287.221 19.8839C288.099 19.5513 289.134 19.3849 290.327 19.3849C292.116 19.3849 293.527 19.7606 294.559 20.5118C295.591 21.2573 296.162 22.2839 296.271 23.5914Z" fill="black"/>
<defs>
<linearGradient id="paint0_linear_1_4" x1="4.03733" y1="26.0009" x2="47.966" y2="26.0009" gradientUnits="userSpaceOnUse">
<stop stop-color="#FE8515"/>
<stop offset="1" stop-color="#FFB36C"/>
</linearGradient>
</defs>
</svg>
