<svg width="51" height="51" viewBox="0 0 51 51" fill="none" xmlns="http://www.w3.org/2000/svg">
<g clip-path="url(#clip0_79_16)">
<path d="M25.5 51C39.5833 51 51 39.5833 51 25.5C51 11.4167 39.5833 0 25.5 0C11.4167 0 0 11.4167 0 25.5C0 39.5833 11.4167 51 25.5 51Z" fill="#FE8515"/>
<path fill-rule="evenodd" clip-rule="evenodd" d="M20.1821 3H24.1692V5.20493H26.7888V3H30.7758V5.81979C34.9891 7.22326 37.9999 10.8735 37.9999 15.1442V19.4039H34.0128V15.1442C34.0128 13.0594 32.7222 11.2225 30.7758 10.166V26.2445L32.9468 27.5041C36.111 29.3401 38 32.462 38 35.8553C38 40.1261 34.9891 43.7763 30.7758 45.1798V48H26.7888V45.7946H24.1692V48H20.1821V45.1657C15.9909 43.752 13.0001 40.1118 13.0001 35.8553V31.5957H16.9872V35.8553C16.9872 37.9251 18.2592 39.7505 20.1821 40.8105V24.7306L18.0532 23.4954C14.889 21.6594 13 18.5375 13 15.1442C13 10.8877 15.9909 7.24753 20.1821 5.83385V3ZM30.7758 40.8336C32.7223 39.7771 34.0129 37.9402 34.0129 35.8553C34.0129 33.9142 32.8701 32.0923 30.9558 30.9816L30.7758 30.8772V40.8336ZM26.7888 28.5639V41.7809H24.1692V27.044L26.7888 28.5639ZM26.7888 23.9312V9.21862H24.1692V22.4113L26.7888 23.9312ZM16.9871 15.1442C16.9871 13.0744 18.2592 11.249 20.1821 10.189V20.098L20.0442 20.0179C18.1298 18.9072 16.9871 17.0853 16.9871 15.1442Z" fill="white" fill-opacity="0.45"/>
<path d="M9.5 34V34.5H10H14.8192H15.3192V34V27.8594H21.7187H22.2187V27.3594V23.6406V23.1406H21.7187H15.3192V21.2188H22.4815H22.9815V20.7188V17V16.5H22.4815H10H9.5V17V34ZM29.8508 16.7463L29.7058 16.5H29.42H24.0113H23.113L23.5864 17.2635L28.6903 25.4957L23.4169 33.7304L22.924 34.5H23.838H29.316H29.5996L29.7451 34.2565L32.4016 29.8117L35.0582 34.2565L35.2037 34.5H35.4873H41H41.9202L41.4195 33.7279L36.0799 25.4948L41.2162 17.2647L41.6934 16.5H40.792H35.418H35.1339L34.9884 16.7441L32.4038 21.0831L29.8508 16.7463Z" fill="#222222" stroke="white"/>
</g>
<defs>
<clipPath id="clip0_79_16">
<rect width="51" height="51" fill="white"/>
</clipPath>
</defs>
</svg>
